<svg xmlns="http://www.w3.org/2000/svg" x="0px" y="0px"
width="100" height="100"
viewBox="0 0 172 172"
style=" fill:#000000;"><g fill="none" fill-rule="nonzero" stroke="none" stroke-width="1" stroke-linecap="butt" stroke-linejoin="miter" stroke-miterlimit="10" stroke-dasharray="" stroke-dashoffset="0" font-family="none" font-weight="none" font-size="none" text-anchor="none" style="mix-blend-mode: normal"><path d="M0,172v-172h172v172z" fill="none"></path><g fill="#ffffff"><path d="M116.1,20.64c-5.21504,0 -9.46,4.24324 -9.46,9.46c0,2.30136 0.82721,4.46337 2.29781,6.16445c-8.02552,6.89892 -12.92687,18.81309 -15.50688,25.09453c-0.98384,2.39596 -3.13647,4.00486 -5.62359,4.19922c-11.52744,0.91332 -21.56453,4.86422 -29.84805,11.7511c-2.17408,-0.6966 -5.66001,-5.32872 -8.76461,-9.45328c-5.7362,-7.62132 -12.24049,-16.25602 -19.95469,-16.25602c-0.73788,0 -1.39366,0.47238 -1.6293,1.17242c-0.05332,0.15996 -5.45845,16.30587 -8.56305,35.53547c-0.59512,3.68424 1.23415,7.31008 4.54859,9.02664c7.54564,3.90612 25.16129,9.2411 29.83797,10.6257c1.03716,6.57556 9.05338,19.58271 18.80578,23.91539v2.28438c0,0.4558 0.18055,0.89445 0.50391,1.21609c1.44996,1.44996 3.37286,2.36653 5.23391,2.94617l1.02461,7.17562c-1.52736,0.44376 -2.35667,0.87427 -2.42547,0.91039c-0.82904,0.45236 -1.13587,1.48713 -0.68867,2.32133c0.44548,0.8342 1.48533,1.15087 2.32469,0.70883c0.02752,-0.01548 2.94351,-1.51844 8.64703,-1.51844c5.70352,0 8.61975,1.50312 8.63695,1.51172c0.26144,0.14276 0.54105,0.20828 0.81969,0.20828c0.60888,0 1.20204,-0.32419 1.51508,-0.89695c0.4558,-0.8342 0.14553,-1.87897 -0.68867,-2.33477c-0.14448,-0.07912 -3.61461,-1.92828 -10.28305,-1.92828c-1.70796,0 -3.19821,0.1251 -4.48477,0.3057l-0.81297,-5.6807c1.51704,0.20812 2.60249,0.215 2.71773,0.215c0.5418,0 1.05226,-0.25523 1.37734,-0.68867c1.96768,-2.62128 4.90727,-6.03102 7.80719,-8.71422c1.4104,2.88444 2.98291,5.7763 3.06375,5.92594c0.16856,0.30788 0.42766,0.55731 0.74242,0.71555c0.21328,0.10664 2.14358,1.04141 4.2093,1.04141c0.67596,0 1.29661,-0.02911 1.87453,-0.07727l1.3068,4.57883c-1.43104,0.42828 -2.21729,0.8306 -2.28437,0.86672c-0.8342,0.4558 -1.14447,1.50057 -0.68867,2.33477c0.4558,0.83248 1.50401,1.14275 2.33477,0.68867c0.02924,-0.01548 2.92827,-1.51172 8.63695,-1.51172c5.70352,0 8.61975,1.50312 8.63695,1.51172c0.26144,0.14276 0.54105,0.20828 0.81969,0.20828c0.60888,0 1.20204,-0.32419 1.51508,-0.89695c0.4558,-0.8342 0.14553,-1.87897 -0.68867,-2.33477c-0.14448,-0.07912 -3.61461,-1.92828 -10.28305,-1.92828c-1.77676,0 -3.30662,0.13486 -4.62586,0.32922l-1.28328,-4.49148c1.76128,-0.56416 2.60851,-1.28492 2.82523,-1.50164c0.2064,-0.2064 0.35924,-0.46206 0.44008,-0.74242c0.02064,-0.07224 2.06121,-7.16265 4.48812,-11.80149c13.52608,-5.504 23.0957,-18.77219 23.0957,-34.25219c0,-4.10908 -0.65024,-8.13246 -1.93164,-11.95602c-0.82216,-2.45788 -1.37385,-4.93471 -1.66625,-7.38055c2.57828,-1.01308 4.45789,-3.89376 4.45789,-7.32344c0,-1.8576 -0.64075,-3.79324 -1.32359,-5.34813c0.63468,-0.215 2.2912,-0.67187 4.93828,-0.67187h0.08063c1.76816,0.00688 4.33596,0.67642 6.24172,1.6293c0.12212,0.0602 0.25389,0.0907 0.38633,0.0907c0.20296,0 0.40106,-0.07068 0.56102,-0.20828c0.26144,-0.22876 0.36031,-0.59359 0.25195,-0.92383c-2.55592,-7.6712 -9.11003,-10.47192 -12.07359,-11.37148c-0.1806,-2.01928 -0.73898,-3.92539 -1.60242,-5.64711c2.8896,-0.4386 5.11969,-2.91758 5.11969,-5.9293c0,-3.60512 -3.26112,-6.51525 -6.88,-5.95281v-0.06719c0,-3.79432 -3.08568,-6.88 -6.88,-6.88c-1.95048,0 -3.78757,0.82506 -5.08273,2.24406c-1.70624,-1.4534 -3.84063,-2.24406 -6.09727,-2.24406zM116.1,22.36c2.11388,0 4.09064,0.84912 5.56984,2.38852c0.17888,0.18748 0.43395,0.28275 0.69539,0.25867c0.258,-0.02236 0.4938,-0.16125 0.63828,-0.37625c0.9632,-1.42244 2.56164,-2.27094 4.27648,-2.27094c2.84488,0 5.16,2.31512 5.16,5.16c0,0.3526 -0.03698,0.70257 -0.1075,1.04141c-0.06192,0.30788 0.04811,0.62681 0.28891,0.82977c0.2408,0.2064 0.56924,0.25969 0.86336,0.14445c2.9154,-1.11972 5.83695,1.12518 5.83523,4.00102c0,2.37016 -1.92812,4.3 -4.3,4.3h-0.04031c-2.58516,-3.90096 -6.84638,-6.55065 -11.72086,-6.84305c-4.99316,-0.30444 -9.29294,1.40274 -12.98062,4.18914c-1.22808,-1.39664 -1.9182,-3.18041 -1.9182,-5.08273c0,-4.26732 3.47268,-7.74 7.74,-7.74zM121.71352,34.41008c0.44017,-0.0147 0.88505,-0.00884 1.33703,0.0168c6.00624,0.3612 10.66642,5.10278 11.07922,11.2707c0.0172,0.24768 0.01336,0.48531 0.0168,0.70547l-4.96516,6.38617c-0.00344,0.00516 -0.00328,0.01164 -0.00672,0.0168c-0.00344,0.00516 -0.00828,0.00492 -0.01344,0.01008c-0.1462,0.2064 -3.60125,5.07395 -3.60125,9.10391c0,3.66704 2.14011,6.73208 4.99875,7.525c0.31476,2.7434 0.92746,5.52222 1.84766,8.27078c1.16272,3.47268 1.75359,7.12838 1.75359,10.86422c0,18.49344 -15.04656,33.54 -33.54,33.54c-6.04064,0 -14.72753,10.59093 -17.16305,13.72305c-1.6598,-0.11352 -5.44463,-0.57418 -7.77695,-2.44898v-2.67406c0,-0.71896 -0.44779,-1.3631 -1.12203,-1.6125c-9.71284,-3.5862 -17.79797,-18.11418 -17.79797,-22.4675c0,-0.7654 -0.50517,-1.43953 -1.23961,-1.65281c-0.22016,-0.06364 -22.08587,-6.43377 -30.34187,-10.70969c-1.99348,-1.032 -3.08893,-3.21175 -2.73117,-5.42539c1.75612,-10.88416 4.25899,-20.76061 6.08047,-27.22437c4.1882,2.93604 8.16554,8.21375 11.72422,12.94031c1.95048,2.59204 3.79249,5.03707 5.52281,6.91359c0.16856,0.18232 0.39936,0.27883 0.63156,0.27883c0.20984,0 0.41941,-0.07536 0.58453,-0.22844c0.34916,-0.32164 0.36867,-0.86521 0.04703,-1.2161c-1.67184,-1.81116 -3.48899,-4.22666 -5.41195,-6.78258c-3.76852,-5.00692 -7.99985,-10.59327 -12.60773,-13.62563c0.60888,-2.10184 1.11101,-3.72487 1.43781,-4.75687c5.6158,0.9976 11.33458,8.59277 15.99063,14.77789c4.58896,6.09568 8.21316,10.91125 12.03328,10.91125c0.41108,0 0.80735,-0.14488 1.11867,-0.4132c7.83116,-6.71488 17.41438,-10.56491 28.47742,-11.43867c3.78572,-0.29928 7.05869,-2.72402 8.53617,-6.3257c3.46747,-8.43623 11.45598,-27.79652 25.10125,-28.25235zM126.42,43c-1.42489,0 -2.58,1.15511 -2.58,2.58c0,1.42489 1.15511,2.58 2.58,2.58c1.42489,0 2.58,-1.15511 2.58,-2.58c0,-1.42489 -1.15511,-2.58 -2.58,-2.58zM136.22266,46.54078c1.78708,0.45236 7.98032,2.42628 10.98516,8.62688c-1.72688,-0.60888 -3.5855,-0.9825 -5.04578,-0.98766h-0.0907c-2.97216,0 -4.84868,0.53637 -5.59,0.79953l-5.2339,-2.0425zM130.18922,54.37148l4.92485,1.9182c0.60888,1.21948 1.62594,3.56459 1.62594,5.63031c0,3.3196 -2.12076,6.02 -4.73,6.02c-2.60924,0 -4.73,-2.7004 -4.73,-6.02c0,-2.76748 2.05438,-6.22756 2.90922,-7.54852zM104.06,70.52c-0.47472,0 -0.86,0.38528 -0.86,0.86c0,0.47472 0.38528,0.86 0.86,0.86c1.09736,0 2.18891,0.12201 3.25187,0.36281c0.06364,0.01376 0.1262,0.02015 0.18812,0.02015c0.39388,0 0.74704,-0.26948 0.83648,-0.66852c0.10492,-0.4644 -0.18396,-0.92641 -0.64836,-1.03133c-1.18336,-0.26832 -2.40348,-0.40313 -3.62812,-0.40313zM110.99375,72.12914c-0.33387,-0.02088 -0.66645,0.15711 -0.82641,0.47703c-0.20984,0.42484 -0.03515,0.9407 0.38969,1.15226c5.01036,2.49056 8.12297,7.50984 8.12297,13.10156c0,5.6588 -4.98112,18.06 -19.78,18.06h-35.76391l3.69195,-3.69195c0.24596,-0.24596 0.32229,-0.61563 0.18812,-0.93727c-0.13244,-0.32164 -0.44873,-0.53078 -0.79617,-0.53078h-3.08391l3.69195,-3.69195c0.24596,-0.24596 0.32229,-0.61563 0.18812,-0.93727c-0.13244,-0.32164 -0.44873,-0.53078 -0.79617,-0.53078h-3.08391l3.69195,-3.69195c0.3354,-0.3354 0.3354,-0.8807 0,-1.2161c-0.3354,-0.3354 -0.8807,-0.3354 -1.2161,0l-5.16,5.16c-0.24596,0.24596 -0.32229,0.61563 -0.18812,0.93727c0.13244,0.32164 0.44873,0.53078 0.79617,0.53078h3.08391l-3.69195,3.69195c-0.24596,0.24596 -0.32229,0.61563 -0.18812,0.93727c0.13244,0.32164 0.44873,0.53078 0.79617,0.53078h3.08391l-3.69195,3.69195c-0.24596,0.24596 -0.32229,0.61563 -0.18812,0.93727c0.13244,0.32164 0.44873,0.53078 0.79617,0.53078h37.84c6.73552,0 21.5,-4.98112 21.5,-19.78c0,-6.24876 -3.47671,-11.85892 -9.07703,-14.64016c-0.10535,-0.05289 -0.21793,-0.08374 -0.32922,-0.0907zM48.89234,82.45586c-0.21672,0.03913 -0.41928,0.16087 -0.5543,0.35609c-0.27176,0.39044 -0.17544,0.9259 0.215,1.19594c0.65876,0.45752 1.27089,0.7701 1.87117,0.9507c0.08256,0.0258 0.16939,0.03359 0.25195,0.03359c0.3698,0 0.71125,-0.23653 0.82305,-0.60805c0.1376,-0.45408 -0.12201,-0.93576 -0.57781,-1.07164c-0.41968,-0.12728 -0.88354,-0.36639 -1.38406,-0.71555c-0.19522,-0.13674 -0.42828,-0.18022 -0.645,-0.14109zM110.01953,124.30359c-1.52908,3.58792 -2.71274,7.37224 -3.14102,8.80156c-0.62608,0.35604 -2.25092,1.05484 -5.39852,1.05484c-0.77916,0 -1.64983,-0.26539 -2.20711,-0.48039c-0.58308,-1.08532 -1.96566,-3.69203 -3.09398,-6.05359c1.69248,-1.25904 3.25085,-2.06602 4.44109,-2.06602c3.25252,0 6.39297,-0.46349 9.39953,-1.25641z"></path></g></g></svg>