<svg xmlns="http://www.w3.org/2000/svg" x="0px" y="0px"
width="100" height="100"
viewBox="0 0 172 172"
style=" fill:#000000;"><g fill="none" fill-rule="nonzero" stroke="none" stroke-width="1" stroke-linecap="butt" stroke-linejoin="miter" stroke-miterlimit="10" stroke-dasharray="" stroke-dashoffset="0" font-family="none" font-weight="none" font-size="none" text-anchor="none" style="mix-blend-mode: normal"><path d="M0,172v-172h172v172z" fill="none"></path><g fill="#ffffff"><path d="M31.82,27.52c-1.48111,0 -3.4061,0.4845 -4.99203,1.94844c-1.58593,1.46394 -2.74797,3.8924 -2.74797,7.51156c0,0.25432 0.08203,0.37177 0.08734,0.61812c-0.71845,-0.34066 -1.45029,-0.67298 -2.06266,-1.10523c-1.72582,-1.21822 -2.97359,-2.73226 -3.27539,-3.33586c-0.12891,-0.28825 -0.40541,-0.48269 -0.72028,-0.5065c-0.31487,-0.02381 -0.61747,0.12683 -0.78827,0.39241c-0.1708,0.26559 -0.18233,0.60341 -0.03005,0.88003c0.5582,1.1164 1.89042,2.61236 3.81961,3.97414c0.97687,0.68955 2.11062,1.322 3.35265,1.78383c0.46221,4.69013 1.71257,8.08699 3.25523,9.93703c0.69584,0.83449 1.38343,1.37857 2.00891,1.80735c-5.60595,6.5827 -9.08711,15.03204 -9.08711,25.43719c0,14.90967 2.24692,42.6426 12.2382,61.54039c0.2979,0.5643 0.88369,0.91733 1.5218,0.91711h6.88c0.93182,0.00026 1.69443,-0.74149 1.72,-1.67297c0.23254,-8.52442 3.8696,-18.65596 6.02672,-23.3275c2.44141,1.65449 5.17689,2.86225 8.03227,3.77594c4.16651,11.94915 6.71383,16.46343 10.45773,20.65008c0.3264,0.36554 0.79322,0.57451 1.28328,0.57445h6.88c0.51796,-0.00018 1.00827,-0.23375 1.33477,-0.63585c0.3265,-0.4021 0.45443,-0.92991 0.34827,-1.43688c-0.85506,-4.08813 -1.48051,-12.6567 -1.62258,-16.88086c7.40739,-0.18938 12.73689,-1.16357 14.39156,-1.49156c2.76903,8.1554 7.85294,16.30074 9.87992,19.62211c0.31256,0.51135 0.86873,0.82317 1.46805,0.82305h6.88c0.54313,0.0002 1.05446,-0.25612 1.37928,-0.69142c0.32482,-0.4353 0.42498,-0.99844 0.27017,-1.51904c0,0 -1.64945,-5.59652 -1.64945,-11.54953c0,-3.29667 0.4134,-6.19889 0.82977,-8.24391c0.18152,-0.89153 0.35204,-1.53649 0.49719,-2.0593c1.28897,-0.01667 2.58568,-0.06268 3.88344,-0.1243c0.50997,10.39183 5.71609,20.57774 7.0043,23.22c0.28778,0.59141 0.88761,0.96695 1.54531,0.9675h5.16c0.4896,0.00012 0.95606,-0.2084 1.28248,-0.5733c0.32643,-0.3649 0.48189,-0.85162 0.42744,-1.33818c0,0 -1.68466,-15.30292 -1.70656,-23.71047c3.00616,-0.48761 5.89328,-1.06883 8.54961,-1.73344c3.99202,-0.9988 7.47853,-2.15055 10.18898,-3.39969c2.71045,-1.24914 4.74067,-2.42139 5.67063,-4.44445c0.35221,-0.76627 0.58223,-1.68492 0.90367,-2.94281c0.32144,-1.25789 0.66697,-2.74513 0.98766,-4.1757c0.64137,-2.86115 1.1825,-5.49594 1.1825,-5.49594c0.10397,-0.50655 -0.02546,-1.03299 -0.35245,-1.43359c-0.32699,-0.4006 -0.81685,-0.63284 -1.33395,-0.63243h-1.72c-3.16709,0 -4.7873,-0.70824 -5.82516,-1.65953c-1.03786,-0.95129 -1.62606,-2.35183 -2.12312,-4.14211c-0.49706,-1.79028 -0.86604,-3.89408 -1.76367,-5.94945c-0.50051,-1.14604 -1.27396,-2.23806 -2.24742,-3.22836c1.67345,-0.70432 3.82313,-1.7186 6.01664,-3.14437c4.53655,-2.94876 9.38273,-7.71713 9.38273,-14.55617c0,-5.54222 -1.90141,-9.3693 -1.90141,-9.3693c-0.29646,-0.59444 -0.90869,-0.96507 -1.57283,-0.95215c-0.66414,0.01292 -1.26149,0.40709 -1.53459,1.01262c0,0 -0.54721,1.30392 -2.62367,3.1175c-2.07647,1.81358 -5.60399,3.98077 -11.45211,5.15664c-1.61067,0.32427 -3.0522,0.81406 -4.35375,1.41094c-3.62405,-6.40186 -11.11404,-12.18578 -20.28727,-16.60875c-9.8011,-4.72571 -21.39234,-7.8475 -31.95437,-7.8475c-13.73473,0 -28.20589,3.08639 -39.40547,10.16211c-3.27971,2.07207 -6.26345,4.51377 -8.85867,7.31c-0.51928,-0.34072 -1.13988,-0.8275 -1.81406,-1.63602c-1.25604,-1.50631 -2.33509,-4.43198 -2.81852,-8.50258c0.71616,0.1522 1.39058,0.40648 2.15672,0.40648c2.99621,0 5.33598,-0.66768 6.96734,-1.89133c1.63137,-1.22365 2.49266,-3.02988 2.49266,-4.98867c0,-1.89573 -0.60341,-3.45386 -1.7032,-4.49484c-1.0998,-1.04098 -2.62956,-1.52516 -4.3168,-1.52516zM31.82,29.24c1.36405,0 2.41691,0.37582 3.1343,1.05484c0.71738,0.67902 1.1657,1.70088 1.1657,3.24516c0,1.48121 -0.56897,2.68498 -1.80398,3.61133c-1.23502,0.92635 -3.19775,1.54867 -5.93602,1.54867c-0.83566,0 -1.61918,-0.24606 -2.40531,-0.46359c-0.02293,-0.4889 -0.17469,-0.72796 -0.17469,-1.25641c0,-3.26083 0.98797,-5.13238 2.19703,-6.24844c1.20906,-1.11606 2.72408,-1.49156 3.82297,-1.49156zM79.12,36.12c9.87672,0 21.08892,2.98512 30.46281,7.50484c8.81519,4.25034 15.80949,9.91938 18.83601,15.25492c-2.21054,1.57978 -3.87065,3.47023 -5.01555,5.33469c-1.07887,1.75693 -1.76524,3.46869 -2.21047,4.84422c-0.44523,1.37553 -0.67796,2.51516 -0.73906,2.75133c-0.15382,0.59536 0.02173,1.22755 0.4605,1.65836c0.43877,0.43081 1.07407,0.59476 1.66651,0.43007c0.59245,-0.16469 1.05199,-0.63299 1.20548,-1.22843c0.14271,-0.55159 0.29484,-1.36752 0.67859,-2.55313c0.38375,-1.1856 0.97147,-2.64211 1.86781,-4.1018c1.79268,-2.91936 4.71823,-5.84124 10.06133,-6.91695c6.39312,-1.28545 10.51887,-3.74234 13.03437,-5.93937c0.89173,-0.77883 0.70861,-0.85754 1.23961,-1.5218c0.34161,1.3294 0.69203,2.97873 0.69203,5.12305c0,5.20095 -3.75382,9.03259 -7.81727,11.67383c-4.06345,2.64124 -8.15656,3.88008 -8.15656,3.88008c-0.68283,0.20522 -1.16827,0.81041 -1.22045,1.5215c-0.05218,0.71109 0.33973,1.38065 0.98529,1.68335c1.7988,0.83937 2.66389,1.99346 3.34258,3.5475c0.67869,1.55404 1.05128,3.49541 1.60578,5.49258c0.5545,1.99717 1.32918,4.12496 3.11078,5.75797c1.70808,1.56562 4.27711,2.43624 7.75344,2.50945c-0.21149,1.01045 -0.33718,1.6454 -0.7357,3.4232c-0.31636,1.41129 -0.65719,2.87375 -0.96414,4.07492c-0.30695,1.20117 -0.64598,2.25079 -0.69539,2.35828c-0.16311,0.35483 -1.57248,1.64839 -3.98758,2.76141c-2.41509,1.11301 -5.74021,2.21954 -9.5843,3.18133c-7.68818,1.92357 -17.47333,3.27539 -26.59617,3.27539l0.09406,0.06383c-0.2615,-0.00275 -0.53732,-0.00672 -0.5375,-0.00672c-0.00031,0.00008 -0.51362,0.23156 -0.51398,0.2318c-0.00036,0.00024 -0.24482,0.1978 -0.24523,0.1982c-0.00041,0.0004 -0.09554,0.10217 -0.12766,0.14109c-0.06421,0.07786 -0.10033,0.13186 -0.12766,0.17469c-0.10936,0.17136 -0.12048,0.21405 -0.14445,0.26875c-0.04797,0.10941 -0.07393,0.18344 -0.1075,0.27883c-0.06717,0.19077 -0.14465,0.43318 -0.23516,0.74578c-0.18101,0.62519 -0.40795,1.51894 -0.63492,2.63375c-0.45396,2.2296 -0.90031,5.34589 -0.90031,8.92922c0,4.66583 0.74563,8.18389 1.26984,10.32h-3.72555c-2.40311,-3.91257 -7.39426,-11.88664 -9.6582,-19.41383c-0.25838,-0.85833 -1.13258,-1.37436 -2.00891,-1.18586c0,0 -7.13723,1.54175 -15.97047,1.68305c-0.19136,0.00306 -0.39177,-0.00498 -0.58453,-0.00336c-0.17569,-0.02857 -0.35475,-0.02971 -0.53078,-0.00336c-8.5821,0.01191 -18.36737,-1.43782 -24.45289,-6.48023c-0.40029,-0.3317 -0.92912,-0.46459 -1.43866,-0.36151c-0.50954,0.10308 -0.94513,0.43107 -1.18501,0.89229c-2.21379,4.2535 -6.21387,15.03152 -6.88336,24.87281h-4.18914c-9.07293,-17.85248 -11.48234,-44.69508 -11.48234,-59.0175c0,-14.54909 7.02892,-24.51668 17.47211,-31.11453c10.44319,-6.59785 24.35366,-9.62797 37.56789,-9.62797zM79.12,39.56c-9.54095,0 -22.33045,1.8986 -32.84461,7.50148c-10.51416,5.60288 -18.75539,15.05684 -18.75539,29.80438c0,4.09253 0.17741,8.67693 0.56102,13.50133c0.01099,0.31602 0.19449,0.60053 0.47786,0.74086c0.28337,0.14034 0.62089,0.11386 0.87891,-0.06893c0.25802,-0.1828 0.39493,-0.49244 0.35651,-0.80631c-0.38008,-4.78009 -0.5543,-9.32388 -0.5543,-13.36695c0,-14.11407 7.70196,-22.88082 17.845,-28.28594c10.14304,-5.40512 22.72475,-7.29992 32.035,-7.29992c1.94961,0 3.93151,0.11896 5.92258,0.34602c0.31393,0.05319 0.63155,-0.0714 0.82559,-0.32385c0.19404,-0.25244 0.23274,-0.59143 0.1006,-0.88111c-0.13214,-0.28968 -0.41351,-0.48266 -0.73135,-0.50161c-2.05093,-0.23389 -4.09727,-0.35945 -6.11742,-0.35945zM88.55313,40.39984c-0.44664,0.00731 -0.81335,0.35532 -0.84399,0.80097c-0.03064,0.44565 0.28498,0.84058 0.72642,0.90895c1.13417,0.19525 2.26859,0.42047 3.39633,0.67523c0.30596,0.0849 0.6338,-0.00568 0.85278,-0.23561c0.21898,-0.22993 0.29347,-0.5618 0.19376,-0.86325c-0.09971,-0.30146 -0.3574,-0.52346 -0.67029,-0.57746c-1.15643,-0.26124 -2.31993,-0.49169 -3.48367,-0.69203c-0.0564,-0.01131 -0.1138,-0.01694 -0.17133,-0.0168zM95.43648,41.95523c-0.42749,0.00881 -0.7836,0.33031 -0.83591,0.75468c-0.05231,0.42437 0.21507,0.82273 0.62763,0.93508c0.57076,0.16015 1.13681,0.32421 1.69985,0.49719c0.29828,0.10703 0.63125,0.04136 0.86656,-0.1709c0.23531,-0.21226 0.33484,-0.53672 0.25902,-0.84442c-0.07582,-0.3077 -0.31469,-0.54878 -0.62168,-0.62742c-0.57904,-0.1779 -1.15852,-0.34742 -1.74015,-0.51063c-0.08294,-0.02395 -0.16901,-0.03527 -0.25531,-0.03359zM130.72,84.28c-1.89986,0 -3.44,1.54014 -3.44,3.44c0,1.89986 1.54014,3.44 3.44,3.44c1.89986,0 3.44,-1.54014 3.44,-3.44c0,-1.89986 -1.54014,-3.44 -3.44,-3.44zM29.22992,92.86656c-0.24307,0.00321 -0.47344,0.10913 -0.6341,0.29156c-0.16067,0.18243 -0.23663,0.42433 -0.2091,0.66586c0.38882,3.9591 0.92092,8.03683 1.60914,12.10047c0.07978,0.46847 0.52422,0.78357 0.99269,0.70379c0.46847,-0.07978 0.78357,-0.52422 0.70379,-0.99269c-0.68089,-4.02036 -1.20717,-8.05759 -1.59234,-11.97953c-0.03712,-0.4511 -0.41751,-0.79624 -0.87008,-0.78945zM123.85344,114.20531c0.06508,7.85361 1.23869,18.99885 1.52852,21.67469h-2.12984c-1.61111,-3.31679 -5.82774,-12.20248 -6.2518,-20.95914c2.31118,-0.17639 4.60521,-0.41717 6.85312,-0.71555zM61.09695,119.18391c3.72978,0.79724 7.55136,1.14085 11.1968,1.20602c0.12836,3.89372 0.6497,10.65123 1.44117,15.49008h-4.04469c-2.99627,-3.45833 -5.14232,-7.12263 -8.59328,-16.69609z"></path></g></g></svg>